<svg width="20" height="18" viewBox="0 0 20 18" fill="none" xmlns="http://www.w3.org/2000/svg">
<path d="M15.417 12.3333C17.0278 12.3333 18.3337 9.90821 18.3337 6.91667C18.3337 3.92512 17.0278 1.5 15.417 1.5M15.417 12.3333C13.8062 12.3333 12.5003 9.90821 12.5003 6.91667C12.5003 3.92512 13.8062 1.5 15.417 1.5M15.417 12.3333L4.53661 10.3551C3.7637 10.2146 3.37725 10.1443 3.06476 9.99079C2.42905 9.67852 1.95563 9.11126 1.76211 8.42994C1.66699 8.09504 1.66699 7.70225 1.66699 6.91667C1.66699 6.13108 1.66699 5.73829 1.76211 5.40339C1.95563 4.72207 2.42905 4.15481 3.06476 3.84254C3.37725 3.68904 3.7637 3.61878 4.53661 3.47825L15.417 1.5M4.16699 10.6667L4.49521 15.2617C4.52638 15.698 4.54196 15.9162 4.63689 16.0816C4.72047 16.2272 4.84607 16.3441 4.99724 16.4171C5.16893 16.5 5.38767 16.5 5.82515 16.5H7.31049C7.81061 16.5 8.06067 16.5 8.24575 16.4003C8.40838 16.3126 8.53728 16.1734 8.61218 16.0046C8.69743 15.8124 8.67825 15.5631 8.6399 15.0644L8.33366 11.0833" stroke="#717680" stroke-width="1.67" stroke-linecap="round" stroke-linejoin="round"/>
</svg>
