<svg width="20" height="20" viewBox="0 0 20 20" fill="none" xmlns="http://www.w3.org/2000/svg">
<path d="M11.6663 1.89136V5.33348C11.6663 5.80018 11.6663 6.03354 11.7572 6.2118C11.8371 6.3686 11.9645 6.49609 12.1213 6.57598C12.2996 6.66681 12.533 6.66681 12.9997 6.66681H16.4418M11.6663 14.1667H6.66634M13.333 10.8334H6.66634M16.6663 8.3236V14.3334C16.6663 15.7335 16.6663 16.4336 16.3939 16.9684C16.1542 17.4388 15.7717 17.8212 15.3013 18.0609C14.7665 18.3334 14.0665 18.3334 12.6663 18.3334H7.33301C5.93288 18.3334 5.23281 18.3334 4.69803 18.0609C4.22763 17.8212 3.84517 17.4388 3.60549 16.9684C3.33301 16.4336 3.33301 15.7335 3.33301 14.3334V5.66675C3.33301 4.26662 3.33301 3.56655 3.60549 3.03177C3.84517 2.56137 4.22763 2.17892 4.69803 1.93923C5.23281 1.66675 5.93288 1.66675 7.33301 1.66675H10.0095C10.621 1.66675 10.9267 1.66675 11.2144 1.73582C11.4695 1.79707 11.7134 1.89808 11.9371 2.03515C12.1893 2.18975 12.4055 2.40594 12.8379 2.83832L15.4948 5.49517C15.9271 5.92755 16.1433 6.14374 16.2979 6.39604C16.435 6.61972 16.536 6.86358 16.5973 7.11867C16.6663 7.40639 16.6663 7.71213 16.6663 8.3236Z" stroke="white" stroke-width="1.66667" stroke-linecap="round" stroke-linejoin="round"/>
</svg>
