<svg width="19" height="18" viewBox="0 0 19 18" fill="none" xmlns="http://www.w3.org/2000/svg">
<path d="M10.2607 13.1667H16.239M10.2607 13.1667L8.6665 16.5M10.2607 13.1667L12.6484 8.17419C12.8408 7.77189 12.937 7.57075 13.0686 7.50718C13.1831 7.4519 13.3166 7.4519 13.431 7.50718C13.5627 7.57075 13.6589 7.77189 13.8513 8.17419L16.239 13.1667M16.239 13.1667L17.8332 16.5M1.1665 3.16667H6.1665M6.1665 3.16667H9.08317M6.1665 3.16667V1.5M9.08317 3.16667H11.1665M9.08317 3.16667C8.66972 5.63107 7.71033 7.86349 6.30446 9.73702M7.83317 10.6667C7.32273 10.4373 6.80204 10.1184 6.30446 9.73702M6.30446 9.73702C5.17736 8.87314 4.16881 7.68886 3.6665 6.5M6.30446 9.73702C4.96722 11.5191 3.22603 12.9765 1.1665 14" stroke="#181D27" stroke-width="1.67" stroke-linecap="round" stroke-linejoin="round"/>
</svg>
