<svg width="20" height="20" viewBox="0 0 20 20" fill="none" xmlns="http://www.w3.org/2000/svg">
<path d="M7.50033 14.1667L3.33366 18.3334M12.5003 14.1667L16.667 18.3334M10.0003 1.66675V3.33341M10.0003 18.3334V14.1667M4.33366 14.1667H15.667C16.6004 14.1667 17.0671 14.1667 17.4236 13.9851C17.7372 13.8253 17.9922 13.5703 18.152 13.2567C18.3337 12.9002 18.3337 12.4335 18.3337 11.5001V6.00008C18.3337 5.06666 18.3337 4.59995 18.152 4.24343C17.9922 3.92983 17.7372 3.67486 17.4236 3.51507C17.0671 3.33341 16.6004 3.33341 15.667 3.33341H4.33366C3.40024 3.33341 2.93353 3.33341 2.57701 3.51507C2.2634 3.67486 2.00844 3.92983 1.84865 4.24343C1.66699 4.59995 1.66699 5.06666 1.66699 6.00008V11.5001C1.66699 12.4335 1.66699 12.9002 1.84865 13.2567C2.00844 13.5703 2.2634 13.8253 2.57701 13.9851C2.93353 14.1667 3.40024 14.1667 4.33366 14.1667Z" stroke="#717680" stroke-width="1.67" stroke-linecap="round" stroke-linejoin="round"/>
</svg>
