<svg width="18" height="18" viewBox="0 0 18 18" fill="none" xmlns="http://www.w3.org/2000/svg">
<path d="M15.6667 9.83333V13.8333C15.6667 14.7668 15.6667 15.2335 15.485 15.59C15.3252 15.9036 15.0703 16.1586 14.7567 16.3183C14.4001 16.5 13.9334 16.5 13 16.5H5C4.06658 16.5 3.59987 16.5 3.24335 16.3183C2.92975 16.1586 2.67478 15.9036 2.51499 15.59C2.33333 15.2335 2.33333 14.7668 2.33333 13.8333V9.83333M6.5 7.33333H11.5M6.73809 10.6667H11.2619C13.039 10.6667 13.9275 10.6667 14.6129 10.3366C15.2933 10.0089 15.8423 9.45997 16.1699 8.77961C16.5 8.09414 16.5 7.20562 16.5 5.42857C16.5 4.09578 16.5 3.42939 16.2524 2.91529C16.0067 2.40502 15.595 1.99331 15.0847 1.74758C14.5706 1.5 13.9042 1.5 12.5714 1.5H5.42857C4.09578 1.5 3.42939 1.5 2.91529 1.74758C2.40502 1.99331 1.99331 2.40502 1.74758 2.91529C1.5 3.42939 1.5 4.09578 1.5 5.42857C1.5 7.20562 1.5 8.09414 1.8301 8.77961C2.15775 9.45997 2.7067 10.0089 3.38705 10.3366C4.07252 10.6667 4.96105 10.6667 6.73809 10.6667Z" stroke="#717680" stroke-width="1.67" stroke-linecap="round" stroke-linejoin="round"/>
</svg>
