<svg width="16" height="20" viewBox="0 0 16 20" fill="none" xmlns="http://www.w3.org/2000/svg">
<path d="M9.66667 1.89124V5.33335C9.66667 5.80006 9.66667 6.03342 9.75749 6.21168C9.83739 6.36848 9.96487 6.49596 10.1217 6.57586C10.2999 6.66669 10.5333 6.66669 11 6.66669H14.4421M11.3333 10.8333H4.66667M11.3333 14.1666H4.66667M6.33333 7.49996H4.66667M9.66667 1.66663H5.33333C3.9332 1.66663 3.23314 1.66663 2.69836 1.93911C2.22795 2.17879 1.8455 2.56124 1.60582 3.03165C1.33333 3.56643 1.33333 4.26649 1.33333 5.66663V14.3333C1.33333 15.7334 1.33333 16.4335 1.60582 16.9683C1.8455 17.4387 2.22795 17.8211 2.69836 18.0608C3.23314 18.3333 3.9332 18.3333 5.33333 18.3333H10.6667C12.0668 18.3333 12.7669 18.3333 13.3016 18.0608C13.772 17.8211 14.1545 17.4387 14.3942 16.9683C14.6667 16.4335 14.6667 15.7334 14.6667 14.3333V6.66663L9.66667 1.66663Z" stroke="#181D27" stroke-width="1.67" stroke-linecap="round" stroke-linejoin="round"/>
</svg>
