<svg width="16" height="20" viewBox="0 0 16 20" fill="none" xmlns="http://www.w3.org/2000/svg">
<path d="M9.66659 1.89136V5.33348C9.66659 5.80018 9.66659 6.03354 9.75741 6.2118C9.83731 6.3686 9.96479 6.49609 10.1216 6.57598C10.2999 6.66681 10.5332 6.66681 10.9999 6.66681H14.442M11.3333 10.8334H4.66659M11.3333 14.1667H4.66659M6.33325 7.50008H4.66659M9.66659 1.66675H5.33325C3.93312 1.66675 3.23306 1.66675 2.69828 1.93923C2.22787 2.17892 1.84542 2.56137 1.60574 3.03177C1.33325 3.56655 1.33325 4.26662 1.33325 5.66675V14.3334C1.33325 15.7335 1.33325 16.4336 1.60574 16.9684C1.84542 17.4388 2.22787 17.8212 2.69828 18.0609C3.23306 18.3334 3.93312 18.3334 5.33325 18.3334H10.6666C12.0667 18.3334 12.7668 18.3334 13.3016 18.0609C13.772 17.8212 14.1544 17.4388 14.3941 16.9684C14.6666 16.4336 14.6666 15.7335 14.6666 14.3334V6.66675L9.66659 1.66675Z" stroke="#181D27" stroke-width="1.67" stroke-linecap="round" stroke-linejoin="round"/>
</svg>
