<svg width="19" height="17" viewBox="0 0 19 17" fill="none" xmlns="http://www.w3.org/2000/svg">
<path d="M13.6665 10.0833V7.57866C13.6665 7.4291 13.6665 7.35431 13.6437 7.28829C13.6236 7.22991 13.5907 7.17673 13.5475 7.1326C13.4986 7.08271 13.4318 7.04927 13.298 6.98238L9.49984 5.08331M2.83317 5.91664V11.5888C2.83317 11.8987 2.83317 12.0537 2.88152 12.1894C2.92426 12.3093 2.99392 12.4179 3.08515 12.5067C3.18835 12.6072 3.32923 12.6718 3.61096 12.8009L8.9443 15.2454C9.14866 15.339 9.25084 15.3859 9.35729 15.4043C9.45162 15.4207 9.54806 15.4207 9.64239 15.4043C9.74883 15.3859 9.85102 15.339 10.0554 15.2454L15.3887 12.8009C15.6704 12.6718 15.8113 12.6072 15.9145 12.5067C16.0058 12.4179 16.0754 12.3093 16.1182 12.1894C16.1665 12.0537 16.1665 11.8987 16.1665 11.5888V5.91664M1.1665 5.08331L9.2017 1.06571C9.31101 1.01105 9.36567 0.983722 9.423 0.972965C9.47378 0.963439 9.52589 0.963439 9.57667 0.972965C9.634 0.983722 9.68866 1.01105 9.79798 1.06571L17.8332 5.08331L9.79798 9.1009C9.68866 9.15556 9.634 9.18289 9.57667 9.19365C9.52589 9.20317 9.47378 9.20317 9.423 9.19365C9.36567 9.18289 9.31101 9.15556 9.2017 9.1009L1.1665 5.08331Z" stroke="#181D27" stroke-width="1.67" stroke-linecap="round" stroke-linejoin="round"/>
</svg>
