<svg width="20" height="17" viewBox="0 0 20 17" fill="none" xmlns="http://www.w3.org/2000/svg">
<path d="M15.8337 6.33325V1.33325M13.3337 3.83325H18.3337M13.3337 15.4999V14.4999C13.3337 13.0998 13.3337 12.3997 13.0612 11.8649C12.8215 11.3945 12.439 11.0121 11.9686 10.7724C11.4339 10.4999 10.7338 10.4999 9.33366 10.4999H5.66699C4.26686 10.4999 3.5668 10.4999 3.03202 10.7724C2.56161 11.0121 2.17916 11.3945 1.93948 11.8649C1.66699 12.3997 1.66699 13.0998 1.66699 14.4999V15.4999M10.417 4.24992C10.417 5.86075 9.11116 7.16659 7.50033 7.16659C5.8895 7.16659 4.58366 5.86075 4.58366 4.24992C4.58366 2.63909 5.8895 1.33325 7.50033 1.33325C9.11116 1.33325 10.417 2.63909 10.417 4.24992Z" stroke="white" stroke-width="1.67" stroke-linecap="round" stroke-linejoin="round"/>
</svg>
