<svg width="20" height="17" viewBox="0 0 20 17" fill="none" xmlns="http://www.w3.org/2000/svg">
<path d="M15.8337 6.33337V1.33337M13.3337 3.83337H18.3337M13.3337 15.5V14.5C13.3337 13.0999 13.3337 12.3998 13.0612 11.8651C12.8215 11.3947 12.439 11.0122 11.9686 10.7725C11.4339 10.5 10.7338 10.5 9.33366 10.5H5.66699C4.26686 10.5 3.5668 10.5 3.03202 10.7725C2.56161 11.0122 2.17916 11.3947 1.93948 11.8651C1.66699 12.3998 1.66699 13.0999 1.66699 14.5V15.5M10.417 4.25004C10.417 5.86087 9.11116 7.16671 7.50033 7.16671C5.8895 7.16671 4.58366 5.86087 4.58366 4.25004C4.58366 2.63921 5.8895 1.33337 7.50033 1.33337C9.11116 1.33337 10.417 2.63921 10.417 4.25004Z" stroke="#181D27" stroke-width="1.67" stroke-linecap="round" stroke-linejoin="round"/>
</svg>
